<svg width="160" height="160" viewBox="0 0 160 160" fill="none" xmlns="http://www.w3.org/2000/svg">
<path d="M151.248 108.493H160L148.555 93.9726C132.174 73.1507 109.509 61.3699 85.7223 61.3699H83.0294H77.1949H74.2777C50.7153 61.3699 28.0505 73.1507 11.4446 93.9726L0 108.493H8.75175C32.3142 108.493 54.979 96.7123 71.5848 75.8904L80.1122 65.2055C75.1753 101.918 32.3142 160 32.3142 160H80.3366H128.359C128.359 160 85.9467 102.74 80.561 66.0274L88.4151 76.1644C104.797 96.7123 127.461 108.493 151.248 108.493Z" fill="#2C2C2C"/>
<path d="M72.9313 40L79.8878 31.2329L86.8444 40C100.309 57.2603 119.159 66.8493 138.682 66.8493H145.863L136.438 54.7945C122.973 37.5342 104.123 27.9452 84.6003 27.9452H82.3563H77.4194H75.1754C55.6522 27.9452 37.0267 37.5342 23.3381 54.7945L13.9131 67.1233H21.094C40.6172 67.1233 59.4671 57.2603 72.9313 40Z" fill="#2C2C2C"/>
<path d="M74.2777 9.86301L79.8878 2.73973L85.4979 9.86301C96.4937 23.8356 111.753 31.7808 127.686 31.7808H133.52L125.891 21.9178C114.895 7.94521 99.6353 0 83.7026 0H81.9074H77.8681H76.0729C60.1402 0 44.8808 7.94521 33.885 21.9178L26.2552 31.7808H32.0898C48.0224 31.7808 63.2819 23.8356 74.2777 9.86301Z" fill="#2C2C2C"/>
</svg>
